G04 #@! TF.GenerationSoftware,KiCad,Pcbnew,5.0.0-fee4fd1~65~ubuntu17.10.1*
G04 #@! TF.CreationDate,2018-12-12T13:05:03-05:00*
G04 #@! TF.ProjectId,audio_test,617564696F5F746573742E6B69636164,rev?*
G04 #@! TF.SameCoordinates,Original*
G04 #@! TF.FileFunction,Paste,Top*
G04 #@! TF.FilePolarity,Positive*
%FSLAX46Y46*%
G04 Gerber Fmt 4.6, Leading zero omitted, Abs format (unit mm)*
G04 Created by KiCad (PCBNEW 5.0.0-fee4fd1~65~ubuntu17.10.1) date Wed Dec 12 13:05:03 2018*
%MOMM*%
%LPD*%
G01*
G04 APERTURE LIST*
%ADD10R,0.280000X0.850000*%
%ADD11R,0.850000X0.280000*%
%ADD12R,5.150000X5.150000*%
%ADD13R,1.250000X0.350000*%
%ADD14R,0.350000X1.250000*%
G04 APERTURE END LIST*
D10*
G04 #@! TO.C,U1*
X31440000Y-22025000D03*
X25940000Y-28975000D03*
D11*
X25215000Y-22750000D03*
X25215000Y-23250000D03*
X25215000Y-23750000D03*
X25215000Y-24250000D03*
X25215000Y-24750000D03*
X25215000Y-25250000D03*
X25215000Y-25750000D03*
X25215000Y-26250000D03*
X25215000Y-26750000D03*
X25215000Y-27250000D03*
X25215000Y-27750000D03*
X25215000Y-28250000D03*
D10*
X26440000Y-28975000D03*
X26940000Y-28975000D03*
X27440000Y-28975000D03*
X27940000Y-28975000D03*
X28440000Y-28975000D03*
X28940000Y-28975000D03*
X29440000Y-28975000D03*
X29940000Y-28975000D03*
X30440000Y-28975000D03*
X30940000Y-28975000D03*
X31440000Y-28975000D03*
D11*
X32165000Y-28250000D03*
X32165000Y-27750000D03*
X32165000Y-27250000D03*
X32165000Y-26750000D03*
X32165000Y-26250000D03*
X32165000Y-25750000D03*
X32165000Y-25250000D03*
X32165000Y-24750000D03*
X32165000Y-24250000D03*
X32165000Y-23750000D03*
X32165000Y-23250000D03*
X32165000Y-22750000D03*
D10*
X30940000Y-22025000D03*
X30440000Y-22025000D03*
X29940000Y-22025000D03*
X29440000Y-22025000D03*
X28940000Y-22025000D03*
X28440000Y-22025000D03*
X27940000Y-22025000D03*
X27440000Y-22025000D03*
X26940000Y-22025000D03*
X26440000Y-22025000D03*
X25940000Y-22025000D03*
D12*
X28690000Y-25500000D03*
G04 #@! TD*
D13*
G04 #@! TO.C,U2*
X46925000Y-25150000D03*
X46925000Y-24650000D03*
X46925000Y-24150000D03*
X46925000Y-23650000D03*
X46925000Y-23150000D03*
X46925000Y-22650000D03*
X46925000Y-25650000D03*
X46925000Y-26150000D03*
X46925000Y-26650000D03*
X46925000Y-27150000D03*
X46925000Y-27650000D03*
X46925000Y-28150000D03*
D14*
X50550000Y-29275000D03*
X50050000Y-29275000D03*
X49550000Y-29275000D03*
X49050000Y-29275000D03*
X48550000Y-29275000D03*
X48050000Y-29275000D03*
X51050000Y-29275000D03*
X51550000Y-29275000D03*
X52050000Y-29275000D03*
X52550000Y-29275000D03*
X53050000Y-29275000D03*
X53550000Y-29275000D03*
D13*
X54675000Y-28150000D03*
X54675000Y-27650000D03*
X54675000Y-27150000D03*
X54675000Y-26650000D03*
X54675000Y-26150000D03*
X54675000Y-25650000D03*
X54675000Y-25150000D03*
X54675000Y-24650000D03*
X54675000Y-24150000D03*
X54675000Y-23650000D03*
X54675000Y-23150000D03*
X54675000Y-22650000D03*
D14*
X53550000Y-21525000D03*
X53050000Y-21525000D03*
X52550000Y-21525000D03*
X52050000Y-21525000D03*
X51550000Y-21525000D03*
X51050000Y-21525000D03*
X50550000Y-21525000D03*
X50050000Y-21525000D03*
X49550000Y-21525000D03*
X49050000Y-21525000D03*
X48550000Y-21525000D03*
X48050000Y-21525000D03*
G04 #@! TD*
M02*
