G04 #@! TF.GenerationSoftware,KiCad,Pcbnew,5.0.0-fee4fd1~65~ubuntu17.10.1*
G04 #@! TF.CreationDate,2018-12-12T13:05:03-05:00*
G04 #@! TF.ProjectId,audio_test,617564696F5F746573742E6B69636164,rev?*
G04 #@! TF.SameCoordinates,Original*
G04 #@! TF.FileFunction,Legend,Top*
G04 #@! TF.FilePolarity,Positive*
%FSLAX46Y46*%
G04 Gerber Fmt 4.6, Leading zero omitted, Abs format (unit mm)*
G04 Created by KiCad (PCBNEW 5.0.0-fee4fd1~65~ubuntu17.10.1) date Wed Dec 12 13:05:03 2018*
%MOMM*%
%LPD*%
G01*
G04 APERTURE LIST*
%ADD10C,0.100000*%
%ADD11C,0.150000*%
G04 APERTURE END LIST*
D10*
G04 #@! TO.C,U1*
X25840000Y-21925000D02*
X25690000Y-21925000D01*
X25690000Y-21925000D02*
X25115000Y-22500000D01*
X25115000Y-22500000D02*
X25115000Y-22800000D01*
X25115000Y-22800000D02*
X24690000Y-22800000D01*
X25115000Y-29075000D02*
X25690000Y-29075000D01*
X25115000Y-28500000D02*
X25115000Y-29075000D01*
X32265000Y-28500000D02*
X32265000Y-29075000D01*
X32265000Y-29075000D02*
X31690000Y-29075000D01*
X32265000Y-22500000D02*
X32265000Y-21925000D01*
X32265000Y-21925000D02*
X31690000Y-21925000D01*
G04 #@! TO.C,U2*
X47200000Y-28500000D02*
X47200000Y-29000000D01*
X47200000Y-29000000D02*
X47700000Y-29000000D01*
X54400000Y-28500000D02*
X54400000Y-29000000D01*
X54400000Y-29000000D02*
X53900000Y-29000000D01*
X53900000Y-21800000D02*
X54400000Y-21800000D01*
X54400000Y-21800000D02*
X54400000Y-22300000D01*
X47700000Y-21800000D02*
X47200000Y-22300000D01*
X47200000Y-22300000D02*
X47200000Y-22400000D01*
X47200000Y-22400000D02*
X46700000Y-22400000D01*
G04 #@! TO.C,U1*
D11*
X27928095Y-19662380D02*
X27928095Y-20471904D01*
X27975714Y-20567142D01*
X28023333Y-20614761D01*
X28118571Y-20662380D01*
X28309047Y-20662380D01*
X28404285Y-20614761D01*
X28451904Y-20567142D01*
X28499523Y-20471904D01*
X28499523Y-19662380D01*
X29499523Y-20662380D02*
X28928095Y-20662380D01*
X29213809Y-20662380D02*
X29213809Y-19662380D01*
X29118571Y-19805238D01*
X29023333Y-19900476D01*
X28928095Y-19948095D01*
G04 #@! TO.C,U2*
X50038095Y-19102380D02*
X50038095Y-19911904D01*
X50085714Y-20007142D01*
X50133333Y-20054761D01*
X50228571Y-20102380D01*
X50419047Y-20102380D01*
X50514285Y-20054761D01*
X50561904Y-20007142D01*
X50609523Y-19911904D01*
X50609523Y-19102380D01*
X51038095Y-19197619D02*
X51085714Y-19150000D01*
X51180952Y-19102380D01*
X51419047Y-19102380D01*
X51514285Y-19150000D01*
X51561904Y-19197619D01*
X51609523Y-19292857D01*
X51609523Y-19388095D01*
X51561904Y-19530952D01*
X50990476Y-20102380D01*
X51609523Y-20102380D01*
G04 #@! TD*
M02*
