G04 #@! TF.GenerationSoftware,KiCad,Pcbnew,5.0.0-fee4fd1~65~ubuntu17.10.1*
G04 #@! TF.CreationDate,2018-12-12T13:05:03-05:00*
G04 #@! TF.ProjectId,audio_test,617564696F5F746573742E6B69636164,rev?*
G04 #@! TF.SameCoordinates,Original*
G04 #@! TF.FileFunction,Other,Fab,Top*
%FSLAX46Y46*%
G04 Gerber Fmt 4.6, Leading zero omitted, Abs format (unit mm)*
G04 Created by KiCad (PCBNEW 5.0.0-fee4fd1~65~ubuntu17.10.1) date Wed Dec 12 13:05:03 2018*
%MOMM*%
%LPD*%
G01*
G04 APERTURE LIST*
%ADD10C,0.100000*%
%ADD11C,0.150000*%
G04 APERTURE END LIST*
D10*
G04 #@! TO.C,U1*
X25690000Y-22025000D02*
X32165000Y-22025000D01*
X25215000Y-22500000D02*
X25215000Y-28975000D01*
X25690000Y-22025000D02*
X25215000Y-22500000D01*
X32165000Y-22025000D02*
X32165000Y-28975000D01*
X32165000Y-28975000D02*
X25215000Y-28975000D01*
G04 #@! TO.C,U2*
X47300000Y-22400000D02*
X47300000Y-28900000D01*
X47800000Y-21900000D02*
X54300000Y-21900000D01*
X47300000Y-22400000D02*
X47800000Y-21900000D01*
X54300000Y-21900000D02*
X54300000Y-28900000D01*
X47300000Y-28900000D02*
X54300000Y-28900000D01*
G04 #@! TD*
G04 #@! TO.C,U1*
D11*
X21309047Y-31416666D02*
X21785238Y-31416666D01*
X21213809Y-31702380D02*
X21547142Y-30702380D01*
X21880476Y-31702380D01*
X22070952Y-30702380D02*
X22642380Y-30702380D01*
X22356666Y-31702380D02*
X22356666Y-30702380D01*
X22928095Y-31654761D02*
X23070952Y-31702380D01*
X23309047Y-31702380D01*
X23404285Y-31654761D01*
X23451904Y-31607142D01*
X23499523Y-31511904D01*
X23499523Y-31416666D01*
X23451904Y-31321428D01*
X23404285Y-31273809D01*
X23309047Y-31226190D01*
X23118571Y-31178571D01*
X23023333Y-31130952D01*
X22975714Y-31083333D01*
X22928095Y-30988095D01*
X22928095Y-30892857D01*
X22975714Y-30797619D01*
X23023333Y-30750000D01*
X23118571Y-30702380D01*
X23356666Y-30702380D01*
X23499523Y-30750000D01*
X23880476Y-31416666D02*
X24356666Y-31416666D01*
X23785238Y-31702380D02*
X24118571Y-30702380D01*
X24451904Y-31702380D01*
X24785238Y-31702380D02*
X24785238Y-30702380D01*
X25118571Y-31416666D01*
X25451904Y-30702380D01*
X25451904Y-31702380D01*
X25928095Y-31702380D02*
X25928095Y-30702380D01*
X26166190Y-30702380D01*
X26309047Y-30750000D01*
X26404285Y-30845238D01*
X26451904Y-30940476D01*
X26499523Y-31130952D01*
X26499523Y-31273809D01*
X26451904Y-31464285D01*
X26404285Y-31559523D01*
X26309047Y-31654761D01*
X26166190Y-31702380D01*
X25928095Y-31702380D01*
X26880476Y-30797619D02*
X26928095Y-30750000D01*
X27023333Y-30702380D01*
X27261428Y-30702380D01*
X27356666Y-30750000D01*
X27404285Y-30797619D01*
X27451904Y-30892857D01*
X27451904Y-30988095D01*
X27404285Y-31130952D01*
X26832857Y-31702380D01*
X27451904Y-31702380D01*
X28404285Y-31702380D02*
X27832857Y-31702380D01*
X28118571Y-31702380D02*
X28118571Y-30702380D01*
X28023333Y-30845238D01*
X27928095Y-30940476D01*
X27832857Y-30988095D01*
X29356666Y-30750000D02*
X29261428Y-30702380D01*
X29118571Y-30702380D01*
X28975714Y-30750000D01*
X28880476Y-30845238D01*
X28832857Y-30940476D01*
X28785238Y-31130952D01*
X28785238Y-31273809D01*
X28832857Y-31464285D01*
X28880476Y-31559523D01*
X28975714Y-31654761D01*
X29118571Y-31702380D01*
X29213809Y-31702380D01*
X29356666Y-31654761D01*
X29404285Y-31607142D01*
X29404285Y-31273809D01*
X29213809Y-31273809D01*
X30356666Y-31702380D02*
X29785238Y-31702380D01*
X30070952Y-31702380D02*
X30070952Y-30702380D01*
X29975714Y-30845238D01*
X29880476Y-30940476D01*
X29785238Y-30988095D01*
X30928095Y-31130952D02*
X30832857Y-31083333D01*
X30785238Y-31035714D01*
X30737619Y-30940476D01*
X30737619Y-30892857D01*
X30785238Y-30797619D01*
X30832857Y-30750000D01*
X30928095Y-30702380D01*
X31118571Y-30702380D01*
X31213809Y-30750000D01*
X31261428Y-30797619D01*
X31309047Y-30892857D01*
X31309047Y-30940476D01*
X31261428Y-31035714D01*
X31213809Y-31083333D01*
X31118571Y-31130952D01*
X30928095Y-31130952D01*
X30832857Y-31178571D01*
X30785238Y-31226190D01*
X30737619Y-31321428D01*
X30737619Y-31511904D01*
X30785238Y-31607142D01*
X30832857Y-31654761D01*
X30928095Y-31702380D01*
X31118571Y-31702380D01*
X31213809Y-31654761D01*
X31261428Y-31607142D01*
X31309047Y-31511904D01*
X31309047Y-31321428D01*
X31261428Y-31226190D01*
X31213809Y-31178571D01*
X31118571Y-31130952D01*
X31689999Y-31416666D02*
X32166190Y-31416666D01*
X31594761Y-31702380D02*
X31928095Y-30702380D01*
X32261428Y-31702380D01*
X32594761Y-31321428D02*
X33356666Y-31321428D01*
X33785238Y-31416666D02*
X34261428Y-31416666D01*
X33689999Y-31702380D02*
X34023333Y-30702380D01*
X34356666Y-31702380D01*
X34689999Y-30702380D02*
X34689999Y-31511904D01*
X34737619Y-31607142D01*
X34785238Y-31654761D01*
X34880476Y-31702380D01*
X35070952Y-31702380D01*
X35166190Y-31654761D01*
X35213809Y-31607142D01*
X35261428Y-31511904D01*
X35261428Y-30702380D01*
X35594761Y-30702380D02*
X36166190Y-30702380D01*
X35880476Y-31702380D02*
X35880476Y-30702380D01*
G04 #@! TO.C,U2*
X43419047Y-31566666D02*
X43895238Y-31566666D01*
X43323809Y-31852380D02*
X43657142Y-30852380D01*
X43990476Y-31852380D01*
X44180952Y-30852380D02*
X44752380Y-30852380D01*
X44466666Y-31852380D02*
X44466666Y-30852380D01*
X45038095Y-31804761D02*
X45180952Y-31852380D01*
X45419047Y-31852380D01*
X45514285Y-31804761D01*
X45561904Y-31757142D01*
X45609523Y-31661904D01*
X45609523Y-31566666D01*
X45561904Y-31471428D01*
X45514285Y-31423809D01*
X45419047Y-31376190D01*
X45228571Y-31328571D01*
X45133333Y-31280952D01*
X45085714Y-31233333D01*
X45038095Y-31138095D01*
X45038095Y-31042857D01*
X45085714Y-30947619D01*
X45133333Y-30900000D01*
X45228571Y-30852380D01*
X45466666Y-30852380D01*
X45609523Y-30900000D01*
X45990476Y-31566666D02*
X46466666Y-31566666D01*
X45895238Y-31852380D02*
X46228571Y-30852380D01*
X46561904Y-31852380D01*
X46895238Y-31852380D02*
X46895238Y-30852380D01*
X47228571Y-31566666D01*
X47561904Y-30852380D01*
X47561904Y-31852380D01*
X48038095Y-31852380D02*
X48038095Y-30852380D01*
X48276190Y-30852380D01*
X48419047Y-30900000D01*
X48514285Y-30995238D01*
X48561904Y-31090476D01*
X48609523Y-31280952D01*
X48609523Y-31423809D01*
X48561904Y-31614285D01*
X48514285Y-31709523D01*
X48419047Y-31804761D01*
X48276190Y-31852380D01*
X48038095Y-31852380D01*
X48990476Y-30947619D02*
X49038095Y-30900000D01*
X49133333Y-30852380D01*
X49371428Y-30852380D01*
X49466666Y-30900000D01*
X49514285Y-30947619D01*
X49561904Y-31042857D01*
X49561904Y-31138095D01*
X49514285Y-31280952D01*
X48942857Y-31852380D01*
X49561904Y-31852380D01*
X50514285Y-31852380D02*
X49942857Y-31852380D01*
X50228571Y-31852380D02*
X50228571Y-30852380D01*
X50133333Y-30995238D01*
X50038095Y-31090476D01*
X49942857Y-31138095D01*
X51466666Y-30900000D02*
X51371428Y-30852380D01*
X51228571Y-30852380D01*
X51085714Y-30900000D01*
X50990476Y-30995238D01*
X50942857Y-31090476D01*
X50895238Y-31280952D01*
X50895238Y-31423809D01*
X50942857Y-31614285D01*
X50990476Y-31709523D01*
X51085714Y-31804761D01*
X51228571Y-31852380D01*
X51323809Y-31852380D01*
X51466666Y-31804761D01*
X51514285Y-31757142D01*
X51514285Y-31423809D01*
X51323809Y-31423809D01*
X52466666Y-31852380D02*
X51895238Y-31852380D01*
X52180952Y-31852380D02*
X52180952Y-30852380D01*
X52085714Y-30995238D01*
X51990476Y-31090476D01*
X51895238Y-31138095D01*
X53038095Y-31280952D02*
X52942857Y-31233333D01*
X52895238Y-31185714D01*
X52847619Y-31090476D01*
X52847619Y-31042857D01*
X52895238Y-30947619D01*
X52942857Y-30900000D01*
X53038095Y-30852380D01*
X53228571Y-30852380D01*
X53323809Y-30900000D01*
X53371428Y-30947619D01*
X53419047Y-31042857D01*
X53419047Y-31090476D01*
X53371428Y-31185714D01*
X53323809Y-31233333D01*
X53228571Y-31280952D01*
X53038095Y-31280952D01*
X52942857Y-31328571D01*
X52895238Y-31376190D01*
X52847619Y-31471428D01*
X52847619Y-31661904D01*
X52895238Y-31757142D01*
X52942857Y-31804761D01*
X53038095Y-31852380D01*
X53228571Y-31852380D01*
X53323809Y-31804761D01*
X53371428Y-31757142D01*
X53419047Y-31661904D01*
X53419047Y-31471428D01*
X53371428Y-31376190D01*
X53323809Y-31328571D01*
X53228571Y-31280952D01*
X53799999Y-31566666D02*
X54276190Y-31566666D01*
X53704761Y-31852380D02*
X54038095Y-30852380D01*
X54371428Y-31852380D01*
X54704761Y-31471428D02*
X55466666Y-31471428D01*
X55895238Y-31566666D02*
X56371428Y-31566666D01*
X55799999Y-31852380D02*
X56133333Y-30852380D01*
X56466666Y-31852380D01*
X56799999Y-30852380D02*
X56799999Y-31661904D01*
X56847619Y-31757142D01*
X56895238Y-31804761D01*
X56990476Y-31852380D01*
X57180952Y-31852380D01*
X57276190Y-31804761D01*
X57323809Y-31757142D01*
X57371428Y-31661904D01*
X57371428Y-30852380D01*
X57704761Y-30852380D02*
X58276190Y-30852380D01*
X57990476Y-31852380D02*
X57990476Y-30852380D01*
X50038095Y-24852380D02*
X50038095Y-25661904D01*
X50085714Y-25757142D01*
X50133333Y-25804761D01*
X50228571Y-25852380D01*
X50419047Y-25852380D01*
X50514285Y-25804761D01*
X50561904Y-25757142D01*
X50609523Y-25661904D01*
X50609523Y-24852380D01*
X51038095Y-24947619D02*
X51085714Y-24900000D01*
X51180952Y-24852380D01*
X51419047Y-24852380D01*
X51514285Y-24900000D01*
X51561904Y-24947619D01*
X51609523Y-25042857D01*
X51609523Y-25138095D01*
X51561904Y-25280952D01*
X50990476Y-25852380D01*
X51609523Y-25852380D01*
G04 #@! TD*
M02*
