G04 #@! TF.GenerationSoftware,KiCad,Pcbnew,5.0.0-fee4fd1~65~ubuntu17.10.1*
G04 #@! TF.CreationDate,2018-12-12T13:05:03-05:00*
G04 #@! TF.ProjectId,audio_test,617564696F5F746573742E6B69636164,rev?*
G04 #@! TF.SameCoordinates,Original*
G04 #@! TF.FileFunction,Copper,L1,Top,Signal*
G04 #@! TF.FilePolarity,Positive*
%FSLAX46Y46*%
G04 Gerber Fmt 4.6, Leading zero omitted, Abs format (unit mm)*
G04 Created by KiCad (PCBNEW 5.0.0-fee4fd1~65~ubuntu17.10.1) date Wed Dec 12 13:05:03 2018*
%MOMM*%
%LPD*%
G01*
G04 APERTURE LIST*
G04 #@! TA.AperFunction,SMDPad,CuDef*
%ADD10R,0.280000X0.850000*%
G04 #@! TD*
G04 #@! TA.AperFunction,SMDPad,CuDef*
%ADD11R,0.850000X0.280000*%
G04 #@! TD*
G04 #@! TA.AperFunction,SMDPad,CuDef*
%ADD12R,5.150000X5.150000*%
G04 #@! TD*
G04 #@! TA.AperFunction,ComponentPad*
%ADD13C,0.300000*%
G04 #@! TD*
G04 #@! TA.AperFunction,SMDPad,CuDef*
%ADD14R,1.250000X0.350000*%
G04 #@! TD*
G04 #@! TA.AperFunction,SMDPad,CuDef*
%ADD15R,0.350000X1.250000*%
G04 #@! TD*
G04 APERTURE END LIST*
D10*
G04 #@! TO.P,U1,37*
G04 #@! TO.N,N/C*
X31440000Y-22025000D03*
G04 #@! TO.P,U1,13*
X25940000Y-28975000D03*
D11*
G04 #@! TO.P,U1,1*
X25215000Y-22750000D03*
G04 #@! TO.P,U1,2*
X25215000Y-23250000D03*
G04 #@! TO.P,U1,3*
X25215000Y-23750000D03*
G04 #@! TO.P,U1,4*
X25215000Y-24250000D03*
G04 #@! TO.P,U1,5*
X25215000Y-24750000D03*
G04 #@! TO.P,U1,6*
X25215000Y-25250000D03*
G04 #@! TO.P,U1,7*
X25215000Y-25750000D03*
G04 #@! TO.P,U1,8*
X25215000Y-26250000D03*
G04 #@! TO.P,U1,9*
X25215000Y-26750000D03*
G04 #@! TO.P,U1,10*
X25215000Y-27250000D03*
G04 #@! TO.P,U1,11*
X25215000Y-27750000D03*
G04 #@! TO.P,U1,12*
X25215000Y-28250000D03*
D10*
G04 #@! TO.P,U1,14*
X26440000Y-28975000D03*
G04 #@! TO.P,U1,15*
X26940000Y-28975000D03*
G04 #@! TO.P,U1,16*
X27440000Y-28975000D03*
G04 #@! TO.P,U1,17*
X27940000Y-28975000D03*
G04 #@! TO.P,U1,18*
X28440000Y-28975000D03*
G04 #@! TO.P,U1,19*
X28940000Y-28975000D03*
G04 #@! TO.P,U1,20*
X29440000Y-28975000D03*
G04 #@! TO.P,U1,21*
X29940000Y-28975000D03*
G04 #@! TO.P,U1,22*
X30440000Y-28975000D03*
G04 #@! TO.P,U1,23*
X30940000Y-28975000D03*
G04 #@! TO.P,U1,24*
X31440000Y-28975000D03*
D11*
G04 #@! TO.P,U1,25*
X32165000Y-28250000D03*
G04 #@! TO.P,U1,26*
X32165000Y-27750000D03*
G04 #@! TO.P,U1,27*
X32165000Y-27250000D03*
G04 #@! TO.P,U1,28*
X32165000Y-26750000D03*
G04 #@! TO.P,U1,29*
X32165000Y-26250000D03*
G04 #@! TO.P,U1,30*
X32165000Y-25750000D03*
G04 #@! TO.P,U1,31*
X32165000Y-25250000D03*
G04 #@! TO.P,U1,32*
X32165000Y-24750000D03*
G04 #@! TO.P,U1,33*
X32165000Y-24250000D03*
G04 #@! TO.P,U1,34*
X32165000Y-23750000D03*
G04 #@! TO.P,U1,35*
X32165000Y-23250000D03*
G04 #@! TO.P,U1,36*
X32165000Y-22750000D03*
D10*
G04 #@! TO.P,U1,38*
X30940000Y-22025000D03*
G04 #@! TO.P,U1,39*
X30440000Y-22025000D03*
G04 #@! TO.P,U1,40*
X29940000Y-22025000D03*
G04 #@! TO.P,U1,41*
X29440000Y-22025000D03*
G04 #@! TO.P,U1,42*
X28940000Y-22025000D03*
G04 #@! TO.P,U1,43*
X28440000Y-22025000D03*
G04 #@! TO.P,U1,44*
X27940000Y-22025000D03*
G04 #@! TO.P,U1,45*
X27440000Y-22025000D03*
G04 #@! TO.P,U1,46*
X26940000Y-22025000D03*
G04 #@! TO.P,U1,47*
X26440000Y-22025000D03*
G04 #@! TO.P,U1,48*
X25940000Y-22025000D03*
D12*
G04 #@! TO.P,U1,49*
X28690000Y-25500000D03*
D13*
X30550000Y-23800000D03*
X30550000Y-24800000D03*
X30550000Y-25800000D03*
X30550000Y-26800000D03*
X30550000Y-27800000D03*
X29550000Y-23800000D03*
X29550000Y-24800000D03*
X29550000Y-25800000D03*
X29550000Y-26800000D03*
X29550000Y-27800000D03*
X28550000Y-23800000D03*
X28550000Y-24800000D03*
X28550000Y-25800000D03*
X28550000Y-26800000D03*
X28550000Y-27800000D03*
X27550000Y-23800000D03*
X27550000Y-24800000D03*
X27550000Y-25800000D03*
X27550000Y-26800000D03*
X27550000Y-27800000D03*
X26550000Y-23800000D03*
X26550000Y-24800000D03*
X26550000Y-25800000D03*
X26550000Y-26800000D03*
X26550000Y-27800000D03*
G04 #@! TD*
D14*
G04 #@! TO.P,U2,6*
G04 #@! TO.N,N/C*
X46925000Y-25150000D03*
G04 #@! TO.P,U2,5*
X46925000Y-24650000D03*
G04 #@! TO.P,U2,4*
X46925000Y-24150000D03*
G04 #@! TO.P,U2,3*
X46925000Y-23650000D03*
G04 #@! TO.P,U2,2*
X46925000Y-23150000D03*
G04 #@! TO.P,U2,1*
X46925000Y-22650000D03*
G04 #@! TO.P,U2,7*
X46925000Y-25650000D03*
G04 #@! TO.P,U2,8*
X46925000Y-26150000D03*
G04 #@! TO.P,U2,9*
X46925000Y-26650000D03*
G04 #@! TO.P,U2,10*
X46925000Y-27150000D03*
G04 #@! TO.P,U2,11*
X46925000Y-27650000D03*
G04 #@! TO.P,U2,12*
X46925000Y-28150000D03*
D15*
G04 #@! TO.P,U2,18*
X50550000Y-29275000D03*
G04 #@! TO.P,U2,17*
X50050000Y-29275000D03*
G04 #@! TO.P,U2,16*
X49550000Y-29275000D03*
G04 #@! TO.P,U2,15*
X49050000Y-29275000D03*
G04 #@! TO.P,U2,14*
X48550000Y-29275000D03*
G04 #@! TO.P,U2,13*
X48050000Y-29275000D03*
G04 #@! TO.P,U2,19*
X51050000Y-29275000D03*
G04 #@! TO.P,U2,20*
X51550000Y-29275000D03*
G04 #@! TO.P,U2,21*
X52050000Y-29275000D03*
G04 #@! TO.P,U2,22*
X52550000Y-29275000D03*
G04 #@! TO.P,U2,23*
X53050000Y-29275000D03*
G04 #@! TO.P,U2,24*
X53550000Y-29275000D03*
D14*
G04 #@! TO.P,U2,25*
X54675000Y-28150000D03*
G04 #@! TO.P,U2,26*
X54675000Y-27650000D03*
G04 #@! TO.P,U2,27*
X54675000Y-27150000D03*
G04 #@! TO.P,U2,28*
X54675000Y-26650000D03*
G04 #@! TO.P,U2,29*
X54675000Y-26150000D03*
G04 #@! TO.P,U2,30*
X54675000Y-25650000D03*
G04 #@! TO.P,U2,31*
X54675000Y-25150000D03*
G04 #@! TO.P,U2,32*
X54675000Y-24650000D03*
G04 #@! TO.P,U2,33*
X54675000Y-24150000D03*
G04 #@! TO.P,U2,34*
X54675000Y-23650000D03*
G04 #@! TO.P,U2,35*
X54675000Y-23150000D03*
G04 #@! TO.P,U2,36*
X54675000Y-22650000D03*
D15*
G04 #@! TO.P,U2,37*
X53550000Y-21525000D03*
G04 #@! TO.P,U2,38*
X53050000Y-21525000D03*
G04 #@! TO.P,U2,39*
X52550000Y-21525000D03*
G04 #@! TO.P,U2,40*
X52050000Y-21525000D03*
G04 #@! TO.P,U2,41*
X51550000Y-21525000D03*
G04 #@! TO.P,U2,42*
X51050000Y-21525000D03*
G04 #@! TO.P,U2,43*
X50550000Y-21525000D03*
G04 #@! TO.P,U2,44*
X50050000Y-21525000D03*
G04 #@! TO.P,U2,45*
X49550000Y-21525000D03*
G04 #@! TO.P,U2,46*
X49050000Y-21525000D03*
G04 #@! TO.P,U2,47*
X48550000Y-21525000D03*
G04 #@! TO.P,U2,48*
X48050000Y-21525000D03*
G04 #@! TD*
M02*
